<svg width="100" height="63" viewBox="0 0 100 63" fill="none" xmlns="http://www.w3.org/2000/svg">
<path d="M14.6365 3.80469H82.2227C84.6183 3.80469 86.8321 5.17704 87.9113 7.33547C89.1118 9.73644 91.0768 11.6922 93.4974 12.873C95.6405 13.9184 97 16.0942 97 18.4786V44.8673C97 47.2718 95.6353 49.468 93.4793 50.5328C91.069 51.7232 89.1135 53.6741 87.9133 56.0747C86.8315 58.2382 84.6163 59.6094 82.2061 59.6094H17.7939C15.3837 59.6094 13.1685 58.2382 12.0867 56.0747C10.8865 53.6741 8.93096 51.7232 6.52065 50.5328C4.36473 49.468 3 47.2718 3 44.8673V15.3545C3 14.0196 3.91671 12.8593 5.21545 12.5505C8.45079 11.7811 10.9788 9.25883 11.7812 6.04906C12.1111 4.72972 13.2998 3.80469 14.6365 3.80469Z" fill="#635C4B" stroke="#827558" stroke-width="6"/>
</svg>

